<?xml version="1.0" encoding="UTF-8" standalone="no"?>
<!-- Created with Inkscape (http://www.inkscape.org/) -->

<svg
   xmlns:dc="http://purl.org/dc/elements/1.1/"
   xmlns:cc="http://creativecommons.org/ns#"
   xmlns:rdf="http://www.w3.org/1999/02/22-rdf-syntax-ns#"
   xmlns:svg="http://www.w3.org/2000/svg"
   xmlns="http://www.w3.org/2000/svg"
   xmlns:sodipodi="http://sodipodi.sourceforge.net/DTD/sodipodi-0.dtd"
   xmlns:inkscape="http://www.inkscape.org/namespaces/inkscape"
   width="256"
   height="256"
   id="svg2"
   version="1.1"
   inkscape:version="0.48.5 r10040"
   sodipodi:docname="cwwx.svg">
  <defs
     id="defs4" />
  <sodipodi:namedview
     id="base"
     pagecolor="#ffffff"
     bordercolor="#666666"
     borderopacity="1.0"
     inkscape:pageopacity="0.0"
     inkscape:pageshadow="2"
     inkscape:zoom="3.3025822"
     inkscape:cx="74.377408"
     inkscape:cy="126.26736"
     inkscape:document-units="px"
     inkscape:current-layer="layer1"
     showgrid="false"
     inkscape:window-width="1920"
     inkscape:window-height="1138"
     inkscape:window-x="-8"
     inkscape:window-y="-8"
     inkscape:window-maximized="1"
     fit-margin-top="0"
     fit-margin-left="0"
     fit-margin-right="0"
     fit-margin-bottom="0" />
  <metadata
     id="metadata7">
    <rdf:RDF>
      <cc:Work
         rdf:about="">
        <dc:format>image/svg+xml</dc:format>
        <dc:type
           rdf:resource="http://purl.org/dc/dcmitype/StillImage" />
        <dc:title></dc:title>
      </cc:Work>
    </rdf:RDF>
  </metadata>
  <g
     inkscape:label="Layer 1"
     inkscape:groupmode="layer"
     id="layer1"
     transform="translate(-173.18192,-97.689336)">
    <path
       inkscape:connector-curvature="0"
       id="path3033"
       d="m 173.18192,345.68934 c 0,-4.4 0.12306,-8 0.27346,-8 0.1504,0 3.85235,3.6 8.22654,8 l 7.95308,8 -8.22654,0 -8.22654,0 0,-8 z m 12,-40 0,-8 8,0 8,0 0,8 0,8 -8,0 -8,0 0,-8 z m 200,0 0,-8 8,0 8,0 0,8 0,8 -8,0 -8,0 0,-8 z m 25.5,-190 -17.97916,-18.000003 18.23958,0 18.23958,0 0,18.000003 c 0,9.9 -0.11719,18 -0.26042,18 -0.14323,0 -8.35104,-8.1 -18.23958,-18 z"
       style="fill:#ffffff" />
    <path
       inkscape:connector-curvature="0"
       id="path3031"
       d="m 213.18192,269.68934 0,-60 77.31291,0 77.31291,0 2.68709,2.80472 2.68709,2.80472 0,57.19528 0,57.19528 -80,0 -80,0 0,-60 z m 104,12 0,-8 -8,0 -8,0 0,-4 0,-4 12,0 12,0 0,4 0,4 6.63817,0 c 6.35462,0 6.82353,0.17086 10.97766,4 2.38671,2.2 5.31383,4 6.50468,4 2.94196,0 11.87949,-9.0282 11.87949,-12 0,-2.9718 -8.93753,-12 -11.87949,-12 -1.19085,0 -4.11797,1.8 -6.50468,4 -2.77649,2.55927 -5.28971,4 -6.97766,4 -2.4112,0 -2.63817,-0.34414 -2.63817,-4 l 0,-4 -16,0 -16,0 0,-4 c 0,-4 0,-4 -4,-4 -4,0 -4,0 -4,4 l 0,4 -20,0 -20,0 0,-4 c 0,-4 0,-4 -4,-4 -4,0 -4,0 -4,4 0,4 0,4 -4,4 -4,0 -4,0 -4,4 0,4 0,4 4,4 4,0 4,0 4,4 l 0,4 -8,0 -8,0 0,8 0,8 44,0 44,0 0,-8 z m -64,-12 0,-4 20,0 20,0 0,4 0,4 -20,0 -20,0 0,-4 z"
       style="fill:#fefefe" />
    <path
       inkscape:connector-curvature="0"
       id="path3029"
       d="m 250.39776,172.40789 -5.21584,-5.28144 0,-34.71856 0,-34.718553 52,0 52,0 0,35.287593 0,35.28759 -4.78435,4.71241 -4.78435,4.71241 -41.99981,0 -41.99981,0 -5.21584,-5.28145 z m 74.78416,-34.71855 0,-24 -12,0 -12,0 0,24 0,24 12,0 12,0 0,-24 z"
       style="fill:#bfbfbf" />
    <path
       inkscape:connector-curvature="0"
       id="path3027"
       d="m 181.68192,345.68934 -7.95308,-8 119.72654,0 119.72654,0 0,-109.72654 0,-109.72654 8,7.95308 8,7.95308 0,109.77346 0,109.77346 -119.77346,0 -119.77346,0 -7.95308,-8 z m 28.71584,-173.28145 -5.21584,-5.28144 0,-30.71856 0,-30.71855 4,0 4,0 0,28.29705 0,28.29705 3.79216,3.70295 c 3.75005,3.66182 3.88333,3.70295 12,3.70295 l 8.20784,0 0,-32 0,-32 4,0 4,0 0,36 0,36 -14.78416,0 -14.78416,0 -5.21584,-5.28145 z"
       style="fill:#7f7f7f" />
    <path
       inkscape:connector-curvature="0"
       id="path3025"
       d="m 181.18192,217.68934 0,-112 12,0 12,0 0,30.78416 0,30.78416 5.28144,5.21584 5.28145,5.21584 14.71855,0 14.71856,0 0,-5.21584 0,-5.21584 5.28144,5.21584 5.28145,5.21584 42.00615,0 42.00614,0 4.71241,-4.78435 4.71241,-4.78435 0,-31.21565 0,-31.21565 19.27085,0 19.27085,0 8.72915,8.76978 8.72915,8.76978 0,103.23022 0,103.23022 -12,0 -12,0 0,-58.78416 0,-58.78416 -5.28145,-5.21584 -5.28144,-5.21584 -82.71856,0 -82.71855,0 0,64 0,64 -12,0 -12,0 0,-112 z m 20,88 0,-8 -8,0 -8,0 0,8 0,8 8,0 8,0 0,-8 z m 200,0 0,-8 -8,0 -8,0 0,8 0,8 8,0 8,0 0,-8 z m -184.29705,-139.79216 -3.70295,-3.79217 0,-28.20783 0,-28.20784 12,0 12,0 0,32 0,32 -8.29705,0 c -8.28646,0 -8.30178,-0.005 -12,-3.79216 z m 84.29705,-28.20784 0,-24 12,0 12,0 0,24 0,24 -12,0 -12,0 0,-24 z"
       style="fill:#000000" />
    <path
       inkscape:connector-curvature="0"
       id="path3023"
       d="m 173.18192,217.68934 0,-120.000004 36,0 36,0 0,4.000004 0,4 -32,0 -32,0 0,112 0,112 12,0 12,0 0,-64 0,-64 82.78416,0 82.78416,0 5.21584,5.28145 5.21584,5.28144 0,58.71856 0,58.71855 12,0 12,0 0,-103.27085 0,-103.27085 -8.76978,-8.72915 -8.76979,-8.72915 -19.23021,0 -19.23022,0 0,-4 0,-4.000004 21.76787,0 21.76786,0 10.23214,10.267084 10.23213,10.26707 0,109.73292 0,109.73293 -120,0 -120,0 0,-120 z m 200,54.80472 0,-57.19528 -2.68709,-2.80472 -2.68709,-2.80472 -77.31291,0 -77.31291,0 0,60 0,60 80,0 80,0 0,-57.19528 z m -144,9.19528 0,-8 8,0 8,0 0,-4 c 0,-4 0,-4 -4,-4 -4,0 -4,0 -4,-4 0,-4 0,-4 4,-4 4,0 4,0 4,-4 0,-4 0,-4 4,-4 4,0 4,0 4,4 l 0,4 20,0 20,0 0,-4 c 0,-4 0,-4 4,-4 4,0 4,0 4,4 l 0,4 16,0 16,0 0,4 c 0,3.65586 0.22697,4 2.63817,4 1.68795,0 4.20117,-1.44073 6.97766,-4 2.38671,-2.2 5.31383,-4 6.50468,-4 2.94196,0 11.87949,9.0282 11.87949,12 0,2.9718 -8.93753,12 -11.87949,12 -1.19085,0 -4.11797,-1.8 -6.50468,-4 -4.15413,-3.82914 -4.62304,-4 -10.97766,-4 l -6.63817,0 0,-4 0,-4 -12,0 -12,0 0,4 0,4 8,0 8,0 0,8 0,8 -44,0 -44,0 0,-8 z m 64,-12 0,-4 -20,0 -20,0 0,4 0,4 20,0 20,0 0,-4 z"
       style="fill:#000000;stroke:#000000;stroke-width:0.5;stroke-miterlimit:4;stroke-dasharray:none" />
  </g>
</svg>
