<?xml version="1.0" encoding="UTF-8" standalone="no"?>
<!-- Created with Inkscape (http://www.inkscape.org/) -->

<svg
   width="256"
   height="256"
   id="svg2"
   version="1.1"
   inkscape:version="1.1 (c4e8f9e, 2021-05-24)"
   sodipodi:docname="cwwx.svg"
   xmlns:inkscape="http://www.inkscape.org/namespaces/inkscape"
   xmlns:sodipodi="http://sodipodi.sourceforge.net/DTD/sodipodi-0.dtd"
   xmlns="http://www.w3.org/2000/svg"
   xmlns:svg="http://www.w3.org/2000/svg"
   xmlns:rdf="http://www.w3.org/1999/02/22-rdf-syntax-ns#"
   xmlns:cc="http://creativecommons.org/ns#"
   xmlns:dc="http://purl.org/dc/elements/1.1/">
  <defs
     id="defs4" />
  <sodipodi:namedview
     id="base"
     pagecolor="#ffffff"
     bordercolor="#666666"
     borderopacity="1.0"
     inkscape:pageopacity="0.0"
     inkscape:pageshadow="2"
     inkscape:zoom="1.2909116"
     inkscape:cx="30.598532"
     inkscape:cy="152.21801"
     inkscape:document-units="px"
     inkscape:current-layer="layer1"
     showgrid="false"
     inkscape:window-width="1280"
     inkscape:window-height="691"
     inkscape:window-x="0"
     inkscape:window-y="23"
     inkscape:window-maximized="1"
     fit-margin-top="0"
     fit-margin-left="0"
     fit-margin-right="0"
     fit-margin-bottom="0"
     inkscape:pagecheckerboard="0" />
  <metadata
     id="metadata7">
    <rdf:RDF>
      <cc:Work
         rdf:about="">
        <dc:format>image/svg+xml</dc:format>
        <dc:type
           rdf:resource="http://purl.org/dc/dcmitype/StillImage" />
        <dc:title />
      </cc:Work>
    </rdf:RDF>
  </metadata>
  <g
     inkscape:label="Layer 1"
     inkscape:groupmode="layer"
     id="layer1"
     transform="translate(-173.18192,-97.689336)">
    <g
       id="g1209">
      <path
         style="fill:#fefefe"
         d="m 213.18192,269.68934 v -60 h 77.31291 77.31291 l 2.68709,2.80472 2.68709,2.80472 v 57.19528 57.19528 h -80 -80 z m 104,12 v -8 h -8 -8 v -4 -4 h 12 12 v 4 4 h 6.63817 c 6.35462,0 6.82353,0.17086 10.97766,4 2.38671,2.2 5.31383,4 6.50468,4 2.94196,0 11.87949,-9.0282 11.87949,-12 0,-2.9718 -8.93753,-12 -11.87949,-12 -1.19085,0 -4.11797,1.8 -6.50468,4 -2.77649,2.55927 -5.28971,4 -6.97766,4 -2.4112,0 -2.63817,-0.34414 -2.63817,-4 v -4 h -16 -16 v -4 c 0,-4 0,-4 -4,-4 -4,0 -4,0 -4,4 v 4 h -20 -20 v -4 c 0,-4 0,-4 -4,-4 -4,0 -4,0 -4,4 0,4 0,4 -4,4 -4,0 -4,0 -4,4 0,4 0,4 4,4 4,0 4,0 4,4 v 4 h -8 -8 v 8 8 h 44 44 z m -64,-12 v -4 h 20 20 v 4 4 h -20 -20 z"
         id="path3031"
         inkscape:connector-curvature="0" />
      <path
         style="fill:#bfbfbf"
         d="m 250.39776,172.40789 -5.21584,-5.28144 V 132.40789 97.689337 h 52 52 v 35.287593 35.28759 l -4.78435,4.71241 -4.78435,4.71241 H 297.61341 255.6136 Z m 74.78416,-34.71855 v -24 h -12 -12 v 24 24 h 12 12 z"
         id="path3029"
         inkscape:connector-curvature="0" />
      <path
         style="fill:#7f7f7f"
         d="m 181.68192,345.68934 -7.95308,-8 H 293.45538 413.18192 V 227.9628 118.23626 l 8,7.95308 8,7.95308 V 243.91588 353.68934 H 309.40846 189.635 Z m 28.71584,-173.28145 -5.21584,-5.28144 v -30.71856 -30.71855 h 4 4 v 28.29705 28.29705 l 3.79216,3.70295 c 3.75005,3.66182 3.88333,3.70295 12,3.70295 h 8.20784 v -32 -32 h 4 4 v 36 36 H 230.39776 215.6136 Z"
         id="path3027"
         inkscape:connector-curvature="0" />
      <path
         style="fill:#7f0000"
         d="m 181.18192,217.68934 v -112 h 12 12 v 30.78416 30.78416 l 5.28144,5.21584 5.28145,5.21584 h 14.71855 14.71856 v -5.21584 -5.21584 l 5.28144,5.21584 5.28145,5.21584 h 42.00615 42.00614 l 4.71241,-4.78435 4.71241,-4.78435 v -31.21565 -31.21565 h 19.27085 19.27085 l 8.72915,8.76978 8.72915,8.76978 v 103.23022 103.23022 h -12 -12 v -58.78416 -58.78416 l -5.28145,-5.21584 -5.28144,-5.21584 h -82.71856 -82.71855 v 64 64 h -12 -12 z m 20,88 v -8 h -8 -8 v 8 8 h 8 8 z m 200,0 v -8 h -8 -8 v 8 8 h 8 8 z m -184.29705,-139.79216 -3.70295,-3.79217 v -28.20783 -28.20784 h 12 12 v 32 32 h -8.29705 c -8.28646,0 -8.30178,-0.005 -12,-3.79216 z m 84.29705,-28.20784 v -24 h 12 12 v 24 24 h -12 -12 z"
         id="path3025"
         inkscape:connector-curvature="0" />
      <path
         style="fill:#000000"
         d="M 173.18192,217.68934 V 97.689336 h 36 36 v 4.000004 4 h -32 -32 v 112 112 h 12 12 v -64 -64 h 82.78416 82.78416 l 5.21584,5.28145 5.21584,5.28144 v 58.71856 58.71855 h 12 12 V 226.41849 123.14764 l -8.76978,-8.72915 -8.76979,-8.72915 h -19.23021 -19.23022 v -4 -4.000004 h 21.76787 21.76786 l 10.23214,10.267084 10.23213,10.26707 v 109.73292 109.73293 h -120 -120 z m 200,54.80472 v -57.19528 l -2.68709,-2.80472 -2.68709,-2.80472 h -77.31291 -77.31291 v 60 60 h 80 80 z m -144,9.19528 v -8 h 8 8 v -4 c 0,-4 0,-4 -4,-4 -4,0 -4,0 -4,-4 0,-4 0,-4 4,-4 4,0 4,0 4,-4 0,-4 0,-4 4,-4 4,0 4,0 4,4 v 4 h 20 20 v -4 c 0,-4 0,-4 4,-4 4,0 4,0 4,4 v 4 h 16 16 v 4 c 0,3.65586 0.22697,4 2.63817,4 1.68795,0 4.20117,-1.44073 6.97766,-4 2.38671,-2.2 5.31383,-4 6.50468,-4 2.94196,0 11.87949,9.0282 11.87949,12 0,2.9718 -8.93753,12 -11.87949,12 -1.19085,0 -4.11797,-1.8 -6.50468,-4 -4.15413,-3.82914 -4.62304,-4 -10.97766,-4 h -6.63817 v -4 -4 h -12 -12 v 4 4 h 8 8 v 8 8 h -44 -44 z m 64,-12 v -4 h -20 -20 v 4 4 h 20 20 z"
         id="path3023"
         inkscape:connector-curvature="0" />
    </g>
  </g>
</svg>
